<?xml version="1.0" encoding="UTF-8"?>
<svg width="22px" height="22px" viewBox="0 0 22 22" version="1.1" xmlns="http://www.w3.org/2000/svg" xmlns:xlink="http://www.w3.org/1999/xlink">
    <!-- Generator: sketchtool 52.6 (67491) - http://www.bohemiancoding.com/sketch -->
    <title>E0E0816D-3E0E-494A-BDB5-3505A61EED75@1.5x</title>
    <desc>Created with sketchtool.</desc>
    <g id="Editor-final" stroke="none" stroke-width="1" fill="none" fill-rule="evenodd">
        <g id="V2-Light-Blue" transform="translate(-35.000000, -170.000000)">
            <g id="Group-13" transform="translate(35.000000, 170.000000)">
                <g id="Group-12">
                    <g id="Group-11">
                        <rect id="Rectangle-11" fill="#273C50" x="0" y="0" width="22" height="22" rx="2"></rect>
                        <path d="M17.8078454,9.82488669 L18.3459107,9.78257538 C18.5043152,9.76986195 18.6233864,9.63321394 18.6109385,9.47698755 L18.5451739,8.68603639 C18.532726,8.52855819 18.3926923,8.41363666 18.2347928,8.42610974 L17.0336272,8.42516337 L15.7333274,5.55895498 C15.5955334,5.25306171 15.2508185,5 14.6967853,5 L10.871864,5 L7.04663662,5 C6.49265436,5 6.14788853,5.25306171 6.00815582,5.55895498 L4.70908553,8.42516337 L3.50816993,8.42610974 C3.3507347,8.41364167 3.21074691,8.5285632 3.1972787,8.68603639 L3.13248334,9.47698755 C3.11978546,9.63321394 3.23910668,9.76986195 3.39705718,9.78257538 L3.93512247,9.82488669 C3.35792794,10.7639975 3,11.5055221 3,12.7553882 L3.1218261,14.2697827 C3.1218261,14.5602487 3.33777664,14.8169707 3.58040853,14.9482659 L3.58040853,14.9507195 L3.58040853,15.7482752 C3.6324448,16.8421053 3.98246017,16.8421053 4.76336141,16.8421053 C5.54329844,16.8421053 5.94708462,16.8421053 5.99942699,15.7482752 L5.99942699,15.0382463 L10.8718589,15.0406999 L15.7021516,15.0394481 L15.7021516,15.7482752 C15.7542389,16.8421053 16.1036931,16.8421053 16.8851657,16.8421053 C17.6648374,16.8421053 18.0688889,16.8421053 18.1206701,15.7482752 L18.1206701,14.9519162 L18.1206701,14.9482659 C18.3638071,14.8169707 18.6199071,14.5602537 18.6199071,14.2697827 L18.7434168,12.7553882 C18.7434219,11.5055221 18.3852389,10.7639975 17.8078454,9.82488669 Z M8.08537759,13.2627234 C8.08537759,13.4202016 7.95487878,13.5465798 7.79693338,13.5465798 L4.95146744,13.5465798 C4.79153242,13.5465798 4.6619978,13.4201966 4.6619978,13.2627234 L4.6619978,12.2414886 C4.6619978,12.0828136 4.79153242,11.9573769 4.95146744,11.9573769 L7.79693338,12.184506 C7.95487878,12.184506 8.08537759,12.3116452 8.08537759,12.4676162 L8.08537759,13.2627234 Z M5.58692218,9.26717852 L6.98562664,6.10930749 L10.8718691,6.10930749 L14.7565811,6.10930749 L16.1547805,9.26717852 L10.8718691,9.26717852 L5.58692218,9.26717852 Z M17.0804599,13.2627234 C17.0804599,13.4202016 16.9509253,13.5465798 16.7915004,13.5465798 L13.9459834,13.5465798 C13.787834,13.5465798 13.6567791,13.4201966 13.6567791,13.2627234 L13.6567791,12.4676162 C13.6567791,12.3116452 13.7878391,12.184506 13.9459834,12.184506 L16.7915004,11.9573769 C16.9509253,11.9573769 17.0804599,12.0828086 17.0804599,12.2414886 L17.0804599,13.2627234 Z" id="Shape" fill="#566779" fill-rule="nonzero"></path>
                    </g>
                    <g id="Group-9" transform="translate(3.000000, 5.000000)"></g>
                </g>
            </g>
        </g>
    </g>
</svg>