<?xml version="1.0" encoding="UTF-8"?>
<svg width="22px" height="22px" viewBox="0 0 22 22" version="1.1" xmlns="http://www.w3.org/2000/svg" xmlns:xlink="http://www.w3.org/1999/xlink">
    <!-- Generator: sketchtool 52.6 (67491) - http://www.bohemiancoding.com/sketch -->
    <title>017A775A-9F4B-4427-AC90-1169A67F178A@1.5x</title>
    <desc>Created with sketchtool.</desc>
    <g id="Editor-final" stroke="none" stroke-width="1" fill="none" fill-rule="evenodd">
        <g id="V2-Light-Blue" transform="translate(-35.000000, -196.000000)">
            <g id="Group-14" transform="translate(35.000000, 196.000000)">
                <g id="Group-10">
                    <rect id="Rectangle-11" fill="#273C50" x="0" y="0" width="22" height="22" rx="2"></rect>
                    <path d="M17.1412068,13.9395035 L17.1412068,13.5006983 C17.1412068,13.1114029 16.7121393,12.7856659 16.3581482,12.5421482 C16.3077629,12.5061901 16.2583424,12.4737102 16.213115,12.4421209 L13.0850259,10.3009423 C12.0197716,9.57123323 12.0197716,9.06586971 12.0197716,8.35153572 L12.0197716,5.66121676 C12.0197716,5.14689535 11.5944388,4 11.070666,4 C10.5478532,4 10.1224774,5.14689535 10.1224774,5.66121676 L10.1224774,8.35153572 C10.1224774,9.06586971 10.1224774,9.57123323 9.05678851,10.3009423 L5.92917697,12.4421209 C5.88390665,12.4737149 5.83447178,12.5061948 5.78366146,12.5421482 C5.43057299,12.7856659 5.0010422,13.1114029 5.0010422,13.5006983 L5.0010422,13.9395035 C5.0010422,13.9866085 4.99869725,14.033348 5.0010422,14.0770358 C5.00572253,14.2056619 5.04626954,14.2926673 5.27807996,14.215276 L10.1224774,12.5842423 L10.1224774,15.8337425 C10.1210924,16.5727798 10.0968263,16.6904323 9.64163965,17.0546072 L9.43502663,17.2175507 C9.43364163,17.2184882 9.43269601,17.2184882 9.43269601,17.2196085 C9.43269601,17.2196085 9.43082866,17.2207804 9.43035107,17.2207804 L8.70465999,17.7890976 C8.69066674,17.8003008 8.67667826,17.8099055 8.66407,17.8202181 C8.57546835,17.8895468 8.51295719,17.9536302 8.51295719,18.1367723 L8.51295719,18.7391679 C8.51295719,18.9870402 8.51295719,19.0504626 8.71445527,18.9623416 L11.069281,17.9392394 C11.070666,17.9392394 11.070666,17.9392394 11.070666,17.9392394 C11.071626,17.9392394 11.071626,17.9392394 11.071626,17.9392394 L13.4277938,18.9623416 C13.6297551,19.0504626 13.6297551,18.9870402 13.6297551,18.7391679 L13.6297551,18.1367723 C13.6297551,17.9536302 13.5668045,17.8895515 13.4776967,17.8202181 C13.4646681,17.8099055 13.4511429,17.8002961 13.4380523,17.7890976 L12.7114156,17.2207804 L12.7095482,17.2196085 C12.7095482,17.2184835 12.7086456,17.2184835 12.7072463,17.2175507 L12.50017,17.0546072 C12.0454227,16.6904323 12.0197716,16.5727798 12.0197716,15.8337425 L12.0197716,12.5842423 L16.8646371,14.215276 C17.0969299,14.2926673 17.1365742,14.2056619 17.1412068,14.0770358 C17.1435422,14.033348 17.1412068,13.9866132 17.1412068,13.9395035 Z" id="Path" fill="#566779"></path>
                </g>
            </g>
        </g>
    </g>
</svg>